PathFileType	4	(X/Y/Z)	C:/Users/beibeiliu/ov580/test_trc/User3\sequence.36_training_dense_left.trc
DataRate	CameraRate	NumFrames	NumMarkers	Units	OrigDataRate	OrigDataStartFrame	OrigNumFrames
120	120	7	19	mm	120	127	252
Frame#	Time	ThumbCMC			ThumbMCP			ThumbIP			ThumbTip			IndexMCP			IndexPIP			IndexTip			MiddleMCP			MiddlePIP			MiddleTip			RingMCP			RingPIP			RingTip			PinkyMCP			PinkyPIP			PinkyTip			BackHand1			BackHand2			BackHand3	
		X0	Y0	Z0	X1	Y1	Z1	X2	Y2	Z2	X3	Y3	Z3	X4	Y4	Z4	X5	Y5	Z5	X6	Y6	Z6	X7	Y7	Z7	X8	Y8	Z8	X9	Y9	Z9	X10	Y10	Z10	X11	Y11	Z11	X12	Y12	Z12	X13	Y13	Z13	X14	Y14	Z14	X15	Y15	Z15	X16	Y16	Z16	X17	Y17	Z17	X18	Y18	Z18	
126	1.05	-169.376	-56.7822	58.2509	-149.673	-65.5314	41.2817	-130.407	-77.9736	14.8722	-129.255	-95.9817	-1.53212	-182.665	-63.7285	-21.8853	-172.25	-78.5664	-45.6689	-159.497	-110.793	-46.1876	-205.414	-74.3836	-23.0257	-193.006	-90.8596	-49.9102	-174.906	-125.086	-45.9396	-212.933	-101.844	-16.7997	-197.785	-125.855	-18.3175	-184.267	-137.974	7.71186	-226.85	-113.356	3.4406	-206.657	-131.713	3.22461	-193.22	-133.955	31.9593	-230.661	-64.7216	26.1899	-234.452	-59.1045	61.4561	-205.557	-46.9899	41.739	
127	1.05833	-168.162	-69.1686	58.3476	-144.366	-79.2175	40.6047	-133.142	-91.5546	15.9603	-128.378	-108.632	-7.69344	-186.014	-66.7249	-19.4008	-176.906	-73.0361	-46.7254	-167.345	-102.702	-61.3693	-206.281	-72.5702	-26.6125	-203.397	-87.9506	-54.2427	-191.554	-123.083	-62.5239	-217.611	-100.692	-18.434	-209.329	-127.34	-25.8358	-190.623	-144.2	-0.120722	-232.469	-116.603	0.94146	-217.528	-140.511	1.54521	-199.462	-141.664	26.892	-228.84	-68.4436	32.4006	-232.991	-63.6796	58.0724	-203.357	-55.9703	42.5362	
128	1.06667	-165.78	-81.4792	56.5248	-144.014	-92.2477	37.2106	-130.714	-103.2	11.6437	-125.493	-117.116	-7.04646	-184.568	-68.328	-15.7744	-177.417	-67.487	-48.0303	-167.833	-83.1453	-68.0992	-209.912	-71.676	-26.1137	-208.419	-77.4158	-56.6367	-205.801	-107.498	-76.5676	-222.517	-98.7301	-22.6114	-217.481	-122.437	-35.0881	-201.346	-148.126	-14.2636	-234.84	-112.971	-1.28678	-224.059	-141.463	-5.06257	-203.489	-146.941	18.4838	-227.201	-72.8374	29.9903	-230.149	-68.3921	61.759	-196.355	-61.4994	46.4899	
129	1.075	-160.258	-91.3733	52.7287	-141.819	-103.404	32.5969	-126.574	-113.212	5.86145	-122.281	-124.452	-8.81728	-176.068	-72.2764	-15.9662	-170.415	-67.0016	-49.4923	-165.17	-74.6035	-71.8876	-208.485	-72.8906	-23.798	-207.6	-73.9194	-57.2227	-209.751	-93.5835	-85.1986	-222.724	-96.5696	-23.5662	-222.015	-119.568	-41.4297	-210.599	-148.952	-29.4354	-238.068	-112.821	-5.08871	-227.154	-138.861	-12.5328	-208.394	-153.601	7.85048	-221.987	-73.9617	30.0964	-221.327	-71.4478	60.3167	-188.195	-69.007	42.4265	
130	1.08333	-154.118	-99.1804	47.7352	-133.816	-111.29	27.7017	-119.558	-123.762	5.74216	-110.065	-134.418	-10.6066	-167.698	-79.3016	-18.8077	-163.522	-72.38	-49.1303	-159.585	-76.2776	-76.7318	-197.427	-75.849	-27.6297	-200.885	-75.3897	-57.1319	-204	-88.9865	-87.6491	-218.909	-95.2306	-21.4038	-216.524	-120.375	-46.2299	-211.546	-152.034	-37.1452	-232.152	-113.337	-8.46926	-227.127	-137.942	-15.2207	-212.484	-156.27	4.06831	-215.83	-75.123	24.8095	-214.146	-76.1842	57.7189	-180.656	-74.4445	42.6599	
131	1.09167	-148.912	-106.544	47.6157	-129.347	-120.573	28.3343	-112.056	-133.075	9.95131	-102.306	-145.676	-7.04891	-159.564	-87.1074	-25.1458	-152.555	-82.8546	-48.3436	-150.91	-83.3074	-75.2775	-189.245	-81.1122	-32.5259	-191.162	-82.3048	-61.1904	-197.702	-93.1871	-93.2911	-211.13	-100.912	-26.186	-216.061	-124.585	-47.0247	-214.088	-154.778	-38.3131	-224.736	-114.177	-9.67713	-225.416	-141.839	-14.3231	-211.108	-161.415	6.80915	-207.851	-78.7724	24.9454	-202.976	-75.5919	54.3101	-173.182	-79.8944	39.732	
132	1.1	-140.489	-111.416	42.9963	-119.14	-128.622	27.0753	-103.654	-141.704	7.94084	-93.5315	-154.426	-2.62805	-152.586	-94.8401	-28.2997	-144.754	-90.9118	-54.5405	-137.638	-92.2747	-78.2064	-180.014	-88.1872	-38.1832	-183.598	-90.1149	-66.1256	-187.863	-100.365	-98.9681	-199.729	-106.987	-31.8514	-209.05	-133.366	-47.3998	-205.183	-161.858	-36.7786	-217.61	-117.797	-12.8932	-217.314	-146.732	-15.0044	-205.826	-161.475	8.25978	-195.926	-83.2857	17.702	-193.708	-78.0073	53.2005	-161.941	-83.8489	29.9005	
